<svg width="120" height="72" viewBox="0 0 120 72" fill="none" xmlns="http://www.w3.org/2000/svg">
<g filter="url(#filter0_d_2_11)">
<path d="M26.9975 23.794C-2.50246 22 -3.50245 63.2938 25.4975 63.7154L97.4973 63.2938C123.5 60.5 121 21.5 91.5 23.794C95 8.00002 73.5 4 69 10C58.5 -8 23.8214 1.44555 26.9975 23.794Z" fill="#89949E"/>
<path d="M26.9975 23.794C-2.50246 22 -3.50245 63.2938 25.4975 63.7154L97.4973 63.2938C123.5 60.5 121 21.5 91.5 23.794C95 8.00002 73.5 4 69 10C58.5 -8 23.8214 1.44555 26.9975 23.794Z" stroke="black"/>
</g>
<defs>
<filter id="filter0_d_2_11" x="0.300018" y="0.551819" width="119.134" height="71.1636" filterUnits="userSpaceOnUse" color-interpolation-filters="sRGB">
<feFlood flood-opacity="0" result="BackgroundImageFix"/>
<feColorMatrix in="SourceAlpha" type="matrix" values="0 0 0 0 0 0 0 0 0 0 0 0 0 0 0 0 0 0 127 0" result="hardAlpha"/>
<feOffset dy="4"/>
<feGaussianBlur stdDeviation="2"/>
<feComposite in2="hardAlpha" operator="out"/>
<feColorMatrix type="matrix" values="0 0 0 0 0 0 0 0 0 0 0 0 0 0 0 0 0 0 0.25 0"/>
<feBlend mode="normal" in2="BackgroundImageFix" result="effect1_dropShadow_2_11"/>
<feBlend mode="normal" in="SourceGraphic" in2="effect1_dropShadow_2_11" result="shape"/>
</filter>
</defs>
</svg>
